HIERARCHY
ROOT Hips
{
	OFFSET 0.00000 0.00000 0.00000
	CHANNELS 6 Xposition Yposition Zposition Zrotation Yrotation Xrotation 
	JOINT LHipJoint
	{
		OFFSET 0 0 0
		CHANNELS 3 Zrotation Yrotation Xrotation
		JOINT LeftHip
		{
			OFFSET 1.76014 -1.80163 0.38499
			CHANNELS 3 Zrotation Yrotation Xrotation
			JOINT LeftKnee
			{
				OFFSET 2.46817 -6.78126 0.00000
				CHANNELS 3 Zrotation Yrotation Xrotation
				JOINT LeftAnkle
				{
					OFFSET 2.79348 -7.67503 0.00000
					CHANNELS 3 Zrotation Yrotation Xrotation
					JOINT LeftToe
					{
						OFFSET 0.09421 -0.25885 1.91403
						CHANNELS 3 Zrotation Yrotation Xrotation
						End Site
						{
							OFFSET 0.00000 -0.00000 0.97975
						}
					}
				}
			}
		}
	}
	JOINT RHipJoint
	{
		OFFSET 0 0 0
		CHANNELS 3 Zrotation Yrotation Xrotation
		JOINT RightHip
		{
			OFFSET -1.77926 -1.80163 0.38499
			CHANNELS 3 Zrotation Yrotation Xrotation
			JOINT RightKnee
			{
				OFFSET -2.51996 -6.92353 0.00000
				CHANNELS 3 Zrotation Yrotation Xrotation
				JOINT RightAnkle
				{
					OFFSET -2.76109 -7.58603 0.00000
					CHANNELS 3 Zrotation Yrotation Xrotation
					JOINT RightToe
					{
						OFFSET -0.08067 -0.22163 1.86812
						CHANNELS 3 Zrotation Yrotation Xrotation
						End Site
						{
							OFFSET -0.00000 -0.00000 0.95558
						}
					}
				}
			}
		}
	}
	JOINT lowerback
	{
		OFFSET 0 0 0
		CHANNELS 3 Zrotation Yrotation Xrotation
		JOINT Chest
		{
			OFFSET 0.05537 1.92033 -0.03713
			CHANNELS 3 Zrotation Yrotation Xrotation
			JOINT Chest2
			{
				OFFSET 0.04452 1.90073 0.10860
				CHANNELS 3 Zrotation Yrotation Xrotation
				JOINT lowerneck
				{
					OFFSET 0 0 0
					CHANNELS 3 Zrotation Yrotation Xrotation
					JOINT Neck
					{
						OFFSET 0.00903 1.74649 0.02074
						CHANNELS 3 Zrotation Yrotation Xrotation
						JOINT Head
						{
							OFFSET -0.08608 1.67844 -0.12081
							CHANNELS 3 Zrotation Yrotation Xrotation
							End Site
							{
								OFFSET -0.03521 1.83380 -0.05059
							}
						}
					}
				}
				JOINT LeftCollar
				{
					OFFSET 0 0 0
					CHANNELS 3 Zrotation Yrotation Xrotation
					JOINT LeftShoulder
					{
						OFFSET 3.28197 0.84325 -0.19106
CHANNELS 3 Zrotation Xrotation Yrotation
						JOINT LeftElbow
						{
OFFSET 0 -5.243180 -0.000000
CHANNELS 3 Zrotation Xrotation Yrotation
							JOINT LeftWrist
							{
OFFSET 0 -2.989990 0.000000
CHANNELS 3 Zrotation Xrotation Yrotation
								JOINT lhand
								{
									OFFSET 0 0 0
CHANNELS 3 Zrotation Xrotation Yrotation
									JOINT LFingers
									{
OFFSET 0 -0.726740 0.000000
CHANNELS 3 Zrotation Xrotation Yrotation
										End Site
										{
OFFSET 0 -0.585920 0.000000
										}
									}
								}
								JOINT LThumb
								{
OFFSET 0 0.000000 0.000000
CHANNELS 3 Zrotation Xrotation Yrotation
									End Site
									{
OFFSET 0 -0.594870 0.594870
									}
								}
							}
						}
					}
				}
				JOINT RightCollar
				{
					OFFSET 0 0 0
					CHANNELS 3 Zrotation Yrotation Xrotation
					JOINT RightShoulder
					{
						OFFSET -3.30963 0.78377 0.14264
CHANNELS 3 Zrotation Xrotation Yrotation
						JOINT RightElbow
						{
OFFSET 0 -5.370450 0.000000
CHANNELS 3 Zrotation Xrotation Yrotation
							JOINT RightWrist
							{
OFFSET 0 -2.927920 0.000000
CHANNELS 3 Zrotation Xrotation Yrotation
								JOINT rhand
								{
									OFFSET 0 0 0
CHANNELS 3 Zrotation Xrotation Yrotation
									JOINT RFingers
									{
OFFSET 0 -0.784500 0.000000
CHANNELS 3 Zrotation Xrotation Yrotation
										End Site
										{
OFFSET 0 -0.632480 0.000000
										}
									}
								}
								JOINT RThumb
								{
OFFSET 0 0.000000 0.000000
CHANNELS 3 Zrotation Xrotation Yrotation
									End Site
									{
OFFSET 0 -0.642140 0.642140
									}
								}
							}
						}
					}
				}
			}
		}
	}
}
MOTION
Frames: 12
Frame Time: 0.008333333333333333
0.325549 18.018070 -0.310011 1.880395 2.782796 11.393961 0.000000 0.000000 0.000000 -19.477659 -9.289359 -21.689326 1.653853 8.104353 23.031575 0.000628 5.116056 -7.320449 1.060601 -6.547791 -18.382538 0.000000 0.000000 0.000000 14.948486 9.105101 -22.494091 -2.108835 -9.089271 26.075051 0.197819 -12.783886 -15.403568 -0.365311 3.882662 -10.746791 7.274000 0.352291 5.987350 3.789466 1.432141 -4.174215 -0.252731 0.430113 -7.719130 -14.966190 14.845102 -22.813397 10.795666 57.851536 9.956319 140.256579 80.541048 -1.513325 0.000000 0.000000 0.000000 23.214449 16.157523 -57.215940 28.784317 -39.828305 10.622236 2.456036 -4.368174 -18.116306 0.000000 0.000000 0.000000 -7.125000 0.000000 0.000000 -24.070291 46.588910 1.000824 0.000000 0.000000 0.000000 -122.955482 -38.740852 -52.666360 -29.598459 -40.546690 -11.147625 -13.199350 -33.466215 9.965908 0.000000 0.000000 0.000000 7.125000 0.000000 0.000000 12.059316 39.923912 1.534646
0.163328 18.077987 -0.253128 2.114183 4.258961 11.707855 0.000000 0.000000 0.000000 -18.985088 -10.558464 -20.328294 1.380663 7.435303 21.011707 -0.045239 5.519768 -6.304162 1.039693 -6.485074 -18.198447 0.000000 0.000000 0.000000 15.443487 9.170424 -21.481605 -1.912773 -8.681857 24.805186 0.220618 -13.782754 -16.751101 -0.109801 2.136168 -5.882245 7.231414 0.297757 5.834740 3.876860 1.379356 -4.574050 -0.123562 0.394744 -8.071193 -14.461229 13.774611 -21.035656 8.809980 54.956790 8.247890 149.590917 77.784755 5.521076 0.000000 0.000000 0.000000 24.223619 16.775484 -59.037285 31.690162 -42.298732 12.531798 1.071793 -3.403304 -17.858199 0.000000 0.000000 0.000000 -7.125000 0.000000 0.000000 -25.170920 46.177993 0.781066 0.000000 0.000000 0.000000 -125.525603 -38.616216 -57.425006 -38.077575 -46.888572 -17.022276 -14.593694 -37.984621 7.666259 0.000000 0.000000 0.000000 7.125000 0.000000 0.000000 10.429949 37.709677 1.895938
0.021485 18.053535 -0.287128 1.635552 4.585908 12.033703 0.000000 0.000000 0.000000 -17.816107 -10.565629 -21.702859 1.525850 7.799486 22.106745 -0.019873 4.996675 -6.422752 1.075312 -6.591638 -18.511227 0.000000 0.000000 0.000000 16.401662 9.005700 -22.393610 -1.986173 -8.837138 25.287182 0.115335 -12.996561 -16.971817 -0.024057 1.001653 -2.753296 7.355065 0.327336 6.423837 3.926611 1.479544 -4.326341 -0.159072 0.440160 -8.141570 -15.389025 14.663980 -23.345700 11.260683 57.638666 9.961886 132.180489 81.238925 -8.609893 0.000000 0.000000 0.000000 23.614183 16.608276 -59.363683 33.132176 -43.431439 13.512827 1.511623 -3.159904 -18.053325 0.000000 0.000000 0.000000 -7.125000 0.000000 0.000000 -24.873300 46.410624 0.922311 0.000000 0.000000 0.000000 -118.770334 -37.815743 -52.160128 -70.250062 -58.472261 -42.983956 -10.170595 -44.710309 10.520948 0.000000 0.000000 0.000000 7.125000 0.000000 0.000000 14.776042 40.222403 1.785068
-0.078250 18.047428 -0.339918 1.480962 5.218836 12.618197 0.000000 0.000000 0.000000 -17.186808 -10.287001 -23.030454 1.558726 7.879009 22.347233 0.002442 4.120433 -5.979591 1.055794 -6.533469 -18.340393 0.000000 0.000000 0.000000 16.808589 9.407772 -23.088490 -1.985630 -8.836087 25.283839 0.197632 -13.679635 -16.908261 -0.047261 1.403012 -3.858487 6.885060 0.100768 7.518668 4.051003 1.243327 -4.185954 0.260440 0.345097 -8.652617 -18.329694 16.861222 -28.048871 21.100047 64.004132 17.865726 54.247312 81.295426 -77.677954 0.000000 0.000000 0.000000 21.003763 16.536842 -58.323718 32.718081 -43.112294 13.229030 1.656715 -2.262566 -17.787084 0.000000 0.000000 0.000000 -7.125000 0.000000 0.000000 -24.627309 46.187367 0.768052 0.000000 0.000000 0.000000 -95.038659 -37.349186 -31.337861 -125.529315 -54.644723 -90.215719 -7.695296 -48.258351 10.326734 0.000000 0.000000 0.000000 7.125000 0.000000 0.000000 16.825147 39.828035 2.217685
-0.135140 18.083274 -0.404092 1.309194 5.123631 14.018827 0.000000 0.000000 0.000000 -16.344554 -11.529330 -23.519028 1.350605 7.357147 20.778011 -0.055699 5.359548 -5.520755 0.898646 -6.041463 -16.904866 0.000000 0.000000 0.000000 16.709562 11.644522 -23.470125 -1.794595 -8.424533 24.011128 0.368549 -15.365093 -17.415330 -0.003858 0.398783 -1.095735 6.972546 0.389350 8.394573 4.424211 1.739872 -3.879002 0.526525 0.593723 -8.821689 -21.685691 17.687507 -31.345209 30.691439 67.415093 26.158529 29.565616 75.846188 -96.058089 0.000000 0.000000 0.000000 19.015387 15.465909 -59.291824 32.460451 -42.911239 13.053280 0.500575 -0.506730 -17.241099 0.000000 0.000000 0.000000 -7.125000 0.000000 0.000000 -25.394115 45.549342 0.368424 0.000000 0.000000 0.000000 -56.117322 -23.872511 11.402844 -142.757419 -46.348547 -103.584639 -5.904401 -38.307592 6.623769 0.000000 0.000000 0.000000 7.125000 0.000000 0.000000 17.393576 36.141485 3.936815
-0.132758 18.092489 -0.473468 2.215667 5.165368 15.523461 0.000000 0.000000 0.000000 -16.853197 -12.856249 -23.995435 1.149379 6.807397 19.146143 -0.105162 6.158035 -4.623142 0.909456 -6.076982 -17.007975 0.000000 0.000000 0.000000 15.214124 12.423840 -25.520532 -1.881181 -8.614096 24.595505 0.392097 -15.763339 -17.817289 -0.000193 0.091131 -0.250413 7.019606 0.378396 9.805268 5.501773 1.909486 -3.064830 1.607650 0.719740 -8.795655 -24.864958 17.738775 -33.804963 36.552848 68.607457 31.889289 30.499513 73.588719 -91.842731 0.000000 0.000000 0.000000 16.472624 15.127379 -57.940842 33.685471 -43.850394 13.894784 1.590988 -0.326761 -17.135894 0.000000 0.000000 0.000000 -7.125000 0.000000 0.000000 -24.400854 45.587228 0.376341 0.000000 0.000000 0.000000 -31.943440 -6.562269 29.330384 -128.749856 -53.487360 -92.824273 -6.340876 -21.546464 -1.973259 0.000000 0.000000 0.000000 7.125000 0.000000 0.000000 15.491743 27.863504 6.682948
-0.084095 18.079430 -0.540601 3.424981 5.220386 17.238370 0.000000 0.000000 0.000000 -17.982112 -13.471153 -25.348782 1.027148 6.446943 18.086902 -0.098004 5.679426 -3.395154 0.994837 -6.347806 -17.796887 0.000000 0.000000 0.000000 13.063552 13.108051 -28.372736 -2.120271 -9.112134 26.146740 0.431247 -16.187940 -18.066420 -0.004456 0.430720 -1.183344 7.954704 -0.047392 11.066637 6.321345 1.637157 -2.458638 2.010983 0.569235 -8.889431 -26.418009 18.189355 -35.469242 41.764127 69.415913 37.091825 31.854768 72.450511 -88.306822 0.000000 0.000000 0.000000 15.821881 15.055874 -57.900557 34.526402 -44.470951 14.480516 1.743275 -0.640443 -17.269863 0.000000 0.000000 0.000000 -7.125000 0.000000 0.000000 -24.325631 45.727816 0.464670 0.000000 0.000000 0.000000 -23.783209 1.384477 34.172008 -128.921700 -53.421200 -92.962300 -7.760415 -18.463157 -4.946011 0.000000 0.000000 0.000000 7.125000 0.000000 0.000000 14.075716 24.969415 7.021825
-0.014550 18.055940 -0.608474 4.024403 3.483332 17.915663 0.000000 0.000000 0.000000 -19.017097 -12.638781 -26.790826 1.085439 6.621633 18.598975 -0.096550 5.599062 -3.143817 1.000124 -6.364085 -17.844482 0.000000 0.000000 0.000000 11.601799 13.734092 -30.285943 -2.312809 -9.489297 27.338186 0.366475 -15.321015 -17.364705 -0.005245 0.467501 -1.284588 9.053504 -0.310110 12.813761 6.229105 1.615309 -1.861906 1.302138 0.494614 -9.225563 -26.275420 18.925230 -36.618997 44.926753 70.024341 40.344301 33.151309 72.456614 -86.097823 0.000000 0.000000 0.000000 16.572723 14.507224 -58.377068 34.292296 -44.300080 14.316754 2.108364 -0.353520 -17.262609 0.000000 0.000000 0.000000 -7.125000 0.000000 0.000000 -24.003627 45.766123 0.481847 0.000000 0.000000 0.000000 -23.356095 -0.495415 37.349133 -128.287442 -53.663304 -92.452183 -9.207232 -15.183379 -6.165433 0.000000 0.000000 0.000000 7.125000 0.000000 0.000000 12.901342 23.752192 6.778900
0.001674 18.032666 -0.640221 4.357181 2.736744 18.482703 0.000000 0.000000 0.000000 -19.468924 -12.249527 -27.905183 1.132590 6.759087 19.003695 -0.090196 5.444480 -3.225173 0.862636 -5.922407 -16.559573 0.000000 0.000000 0.000000 10.670529 14.608690 -31.437545 -2.442297 -9.732232 28.113750 0.396378 -15.413553 -17.104337 -0.023013 0.976234 -2.683531 9.754836 -0.410751 13.771532 6.053970 1.678082 -1.504753 0.707086 0.482989 -9.361851 -26.711250 18.961159 -37.460020 45.741776 70.319105 41.217257 31.989334 72.224063 -86.941911 0.000000 0.000000 0.000000 16.848541 13.416610 -57.946864 34.476760 -44.434907 14.445831 2.597389 -0.782442 -17.574937 0.000000 0.000000 0.000000 -7.125000 0.000000 0.000000 -23.708867 46.112256 0.689446 0.000000 0.000000 0.000000 -24.073161 -3.026274 37.598940 -127.068337 -54.111576 -91.467302 -9.937134 -14.432717 -6.545340 0.000000 0.000000 0.000000 7.125000 0.000000 0.000000 12.339026 23.362101 6.583062
-0.003500 18.047676 -0.632768 4.296049 2.795693 19.149446 0.000000 0.000000 0.000000 -19.356696 -12.143772 -28.497397 1.083402 6.615606 18.581567 -0.087689 5.306047 -2.789899 0.849518 -5.878499 -16.432322 0.000000 0.000000 0.000000 10.434078 15.341416 -31.632710 -2.350971 -9.561724 27.568653 0.452441 -16.005090 -17.419467 -0.007567 0.560217 -1.539445 10.228678 -0.376083 13.743691 6.083936 1.783081 -1.342551 0.451699 0.519809 -9.150497 -26.847408 18.835001 -37.543894 45.352513 70.478604 40.925833 30.278287 72.222209 -88.923407 0.000000 0.000000 0.000000 16.591847 12.522098 -57.972143 35.753329 -45.342600 15.346797 3.033949 -2.148850 -17.859260 0.000000 0.000000 0.000000 -7.125000 0.000000 0.000000 -23.447184 46.427721 0.873529 0.000000 0.000000 0.000000 -24.267125 -3.229170 36.957682 -126.785889 -54.212354 -91.238312 -10.488830 -14.008915 -6.795291 0.000000 0.000000 0.000000 7.125000 0.000000 0.000000 11.919255 23.101249 6.422386
-0.001544 18.029117 -0.677213 4.154033 2.241001 18.500718 0.000000 0.000000 0.000000 -19.312596 -11.912853 -28.551452 1.213645 6.988409 19.681018 -0.093066 5.548933 -3.382845 0.788669 -5.669027 -15.826928 0.000000 0.000000 0.000000 10.708578 15.093826 -31.590560 -2.434724 -9.718187 28.068839 0.415535 -15.421159 -16.834094 -0.014211 0.766211 -2.105864 10.117426 -0.358829 14.206292 5.991968 1.709783 -0.163100 0.399288 0.547132 -8.111120 -22.062298 18.033939 -32.854202 29.065960 69.290157 27.774788 60.957586 80.675182 -67.976547 0.000000 0.000000 0.000000 17.282069 10.193876 -59.524509 37.229124 -46.339817 16.405573 3.388266 -1.772362 -17.402035 0.000000 0.000000 0.000000 -7.125000 0.000000 0.000000 -22.939060 46.052552 0.628913 0.000000 0.000000 0.000000 -26.447212 -6.701163 35.637275 -124.890528 -54.859263 -89.694421 -9.931385 -9.212055 -8.226098 0.000000 0.000000 0.000000 7.125000 0.000000 0.000000 12.220137 21.695965 6.993935
0.037347 18.005154 -0.842594 4.024815 0.639964 17.956137 0.000000 0.000000 0.000000 -19.782978 -10.269530 -29.697514 1.356001 7.371063 20.819597 -0.076838 5.141553 -3.496435 0.755931 -5.552940 -15.492643 0.000000 0.000000 0.000000 10.677957 14.734396 -32.412482 -2.496516 -9.831493 28.432757 0.373428 -14.183766 -15.085630 -0.049061 1.428541 -3.928702 9.745768 -0.657508 15.182330 5.578593 1.177521 1.486675 0.238197 0.371162 -6.880978 -11.048384 14.790362 -17.323143 9.412983 58.364880 11.213701 165.163663 65.927849 18.992391 0.000000 0.000000 0.000000 18.755259 5.876756 -60.267674 37.179517 -46.307155 16.369709 3.492521 -1.702727 -17.338322 0.000000 0.000000 0.000000 -7.125000 0.000000 0.000000 -22.820488 46.006906 0.598228 0.000000 0.000000 0.000000 -29.719873 -15.489592 34.016964 -121.527352 -55.888984 -86.926618 -9.383083 -9.959772 -8.843156 0.000000 0.000000 0.000000 7.125000 0.000000 0.000000 12.569498 21.102637 7.377224
